
  <svg
    width="1000"
    height="1000"
    viewBox="0 0 1000 1000"
    xmlns="http://www.w3.org/2000/svg"
  >
    <defs>
      
      
      
      
      
      
      
      <clipPath id="shape">
        <path fill="currentColor" d="M842.5,689.5Q802,879,614.5,848.5Q427,818,281.5,746.5Q136,675,129,496.5Q122,318,277,261Q432,204,611,170Q790,136,836.5,318Q883,500,842.5,689.5Z"></path>
      </clipPath>
    </defs>
  
    

    <g  clip-path="url(#shape)">
      <path fill="#444cf7" d="M842.5,689.5Q802,879,614.5,848.5Q427,818,281.5,746.5Q136,675,129,496.5Q122,318,277,261Q432,204,611,170Q790,136,836.5,318Q883,500,842.5,689.5Z" />
    </g>

    
  
  </svg>